<svg width="20" height="20" viewBox="0 0 20 20" fill="none" xmlns="http://www.w3.org/2000/svg">
<path d="M8.825 16.5667C7.98904 16.4487 7.17653 16.2013 6.41667 15.8333L2.5 16.6667L3.58333 13.4167C1.64667 10.5525 2.395 6.85668 5.33333 4.77168C8.27167 2.68751 12.4917 2.85835 15.2042 5.17168C16.5083 6.28418 17.27 7.72585 17.4625 9.22251M15 18.3334L17.7917 15.5967C17.9629 15.4306 18.099 15.2318 18.1922 15.0122C18.2853 14.7926 18.3335 14.5565 18.3338 14.318C18.3342 14.0794 18.2868 13.8432 18.1944 13.6233C18.102 13.4034 17.9665 13.2042 17.7958 13.0375C17.4476 12.697 16.9802 12.5059 16.4931 12.5049C16.006 12.504 15.5379 12.6933 15.1883 13.0325L15.0017 13.2159L14.8158 13.0325C14.4676 12.6922 14.0004 12.5013 13.5135 12.5003C13.0266 12.4994 12.5587 12.6886 12.2092 13.0275C12.0379 13.1936 11.9017 13.3923 11.8085 13.6119C11.7153 13.8315 11.667 14.0675 11.6666 14.306C11.6661 14.5446 11.7134 14.7808 11.8058 15.0008C11.8981 15.2207 12.0336 15.4199 12.2042 15.5867L15 18.3334Z" stroke="#184DE5" stroke-width="1.5" stroke-linecap="round" stroke-linejoin="round"/>
</svg>
