<?xml version="1.0" encoding="iso-8859-1"?>
<!-- Generator: Adobe Illustrator 22.1.0, SVG Export Plug-In . SVG Version: 6.00 Build 0)  -->
<svg xmlns="http://www.w3.org/2000/svg" xmlns:xlink="http://www.w3.org/1999/xlink" viewBox="0 0 16 16" width="24px" height="24px">
<polygon style="fill:#152149;" points="0,7 1,7 1,12 2,12 2,6 0,6 "/>
<polygon style="fill:#152149;" points="1,5 3,5 3,12 4,12 4,4 1,4 "/>
<path style="fill:#152149;" d="M6,8c0-1.654,1.346-3,3-3s3,1.346,3,3h1c0-2.206-1.794-4-4-4S5,5.794,5,8s1.794,4,4,4h7v-1H9  C7.346,11,6,9.654,6,8z"/>
<path style="fill:#152149;" d="M9,9C8.449,9,8,8.552,8,8s0.449-1,1-1s1,0.448,1,1h1c0-1.103-0.897-2-2-2S7,6.897,7,8s0.897,2,2,2h7  V9H9z"/>
</svg>