<svg width="10" height="15" viewBox="0 0 10 15" fill="none" xmlns="http://www.w3.org/2000/svg">
<path d="M2.8817 9.77188L2.91212 9.55355C3.0208 8.80495 3.17029 8.21697 3.36061 7.78961C3.5552 7.36284 3.79771 7.03004 4.08815 6.7912C4.3786 6.55236 4.71677 6.34636 5.10267 6.17319C5.39162 6.03889 5.65368 5.89429 5.88884 5.7394C6.124 5.58451 6.31909 5.40439 6.4741 5.19905C6.62971 4.98943 6.72691 4.74548 6.76569 4.46721C6.80685 4.17181 6.77239 3.90297 6.66232 3.6607C6.55224 3.41842 6.38584 3.22066 6.16311 3.06742C5.94465 2.91478 5.69219 2.8185 5.40572 2.77858C5.1278 2.73985 4.8562 2.76529 4.59091 2.85488C4.32622 2.9402 4.09807 3.0917 3.90646 3.3094C3.71545 3.52282 3.58908 3.80416 3.52733 4.15342L0.910634 3.78879C1.05133 2.93554 1.35499 2.25776 1.82163 1.75543C2.28886 1.24882 2.86224 0.90321 3.54177 0.71859C4.2219 0.529689 4.9489 0.489159 5.7228 0.597C6.57365 0.715566 7.30648 0.961705 7.92128 1.33542C8.53668 1.70485 8.99338 2.18091 9.29138 2.7636C9.58939 3.3463 9.68619 4.01224 9.58179 4.76144C9.512 5.26233 9.36658 5.69594 9.14554 6.06229C8.92937 6.42495 8.6529 6.73556 8.31612 6.99413C7.97994 7.24842 7.59419 7.46743 7.15887 7.65116C6.79305 7.80531 6.4859 7.97635 6.23742 8.1643C5.99321 8.35285 5.79768 8.58309 5.65082 8.85503C5.50823 9.12757 5.40557 9.47331 5.34283 9.89227L5.31241 10.1106L2.8817 9.77188ZM3.57886 14.0587C3.15129 13.9991 2.80661 13.7983 2.5448 13.4564C2.28786 13.1107 2.19105 12.7263 2.25439 12.303C2.30858 11.8829 2.5062 11.5438 2.84726 11.2858C3.19259 11.0285 3.57904 10.9296 4.0066 10.9892C4.41279 11.0458 4.74892 11.2453 5.01501 11.5879C5.2811 11.9305 5.38705 12.3119 5.33286 12.732C5.28921 13.014 5.17829 13.2625 5.00011 13.4777C4.8268 13.6893 4.61486 13.8496 4.36428 13.9587C4.11431 14.0635 3.8525 14.0968 3.57886 14.0587Z" fill="#007AFF" fill-opacity="0.1"/>
</svg>
