<!DOCTYPE svg PUBLIC "-//W3C//DTD SVG 1.1//EN" "http://www.w3.org/Graphics/SVG/1.1/DTD/svg11.dtd">
<!-- Uploaded to: SVG Repo, www.svgrepo.com, Transformed by: SVG Repo Mixer Tools -->
<svg fill="#152149" height="24px" width="24px" version="1.1" id="Layer_1" xmlns="http://www.w3.org/2000/svg" xmlns:xlink="http://www.w3.org/1999/xlink" viewBox="0 0 515.471 515.471" xml:space="preserve" stroke="#152149">
<g id="SVGRepo_bgCarrier" stroke-width="0"/>
<g id="SVGRepo_tracerCarrier" stroke-linecap="round" stroke-linejoin="round"/>
<g id="SVGRepo_iconCarrier"> <g transform="translate(1 1)"> <g> <g> <path d="M507.529,379.095l-12.149-2.603c-6.075-0.868-10.414-5.207-13.017-10.414c-2.603-6.075-1.736-11.281,1.736-16.488 l7.81-10.414c2.603-3.471,1.736-8.678-0.868-11.281l-0.435-0.435c7.602-24.212,11.716-49.637,11.716-75.064 c0-135.853-108.005-246.764-242.72-251.485l-0.263-0.176h-5.207c-0.868,0-2.603,0-3.471,0s-2.603,0-3.471,0h-5.207l-0.263,0.176 C107.005,5.633-1,116.544-1,252.397c0,63.459,23.575,121.47,62.42,165.768c0.237,0.615,0.539,1.198,0.929,1.717 c0.819,1.228,1.834,2.058,2.948,2.605c44.141,48.071,106.702,78.952,176.423,81.395l0.263,0.176h5.207c0.868,0,2.603,0,3.471,0 c26.634,0,53.267-4.51,79.202-13.518c3.052,1.567,6.472,1.763,9.313-0.367l5.785-4.339c0.386,0,0.771,0,1.157,0 c5.032-2.516,10.056-4.228,14.304-6.69c1.941,0.104,3.851,0.581,5.655,1.483c5.207,2.603,9.546,6.942,10.414,13.017l2.603,12.149 c0.868,4.339,4.339,6.942,8.678,6.942h24.298c4.339,0,7.81-3.471,12.149-7.81l1.736-9.546 c0.868-6.075,5.207-10.414,10.414-13.017c5.207-2.603,11.281-1.736,16.488,1.736l7.81,5.207c3.471,2.603,7.81,1.736,11.281-0.868 l17.356-17.356c2.603-3.471,3.471-7.81,0.868-11.281l-6.942-10.414c-3.471-5.207-4.339-11.281-1.736-16.488 c2.603-6.075,6.942-9.546,13.017-10.414l13.017-1.736c3.471-0.868,6.942-4.339,6.942-8.678v-24.298 C514.471,383.434,511.868,379.963,507.529,379.095z M474.553,311.407l-0.868-0.868c-3.471-2.603-7.81-3.471-11.281-0.868 l-10.414,6.942c-5.207,3.471-11.281,4.339-16.488,1.736c-2.226-0.954-4.098-2.143-5.625-3.563 c-2.127-2.316-3.434-5.178-3.921-8.586l-1.736-13.017c-0.422-1.69-1.465-3.376-2.921-4.666c-1.609-1.824-3.95-3.145-6.624-3.145 h-24.298c-4.339,0-7.81,2.603-8.678,6.942l-3.471,16.488c-0.868,6.075-5.207,10.414-10.414,13.017 c-6.075,1.736-11.281,1.736-16.488-1.736l-13.885-9.546c-3.471-2.603-8.678-1.736-11.281,0.868l-17.356,17.356 c-2.603,2.603-3.471,7.81-0.868,11.281l7.81,10.414c3.471,5.207,4.339,11.281,1.736,16.488 c-2.603,5.207-6.942,9.546-13.017,10.414l-12.149,2.603c-4.339,0.868-6.942,4.339-6.942,8.678v24.298 c0,2.764,1.06,5.172,2.949,6.783c1.182,1.372,2.828,2.356,4.862,2.763l13.017,1.736c3.363,0.48,6.191,2.027,8.49,4.193 c1.464,1.571,2.683,3.401,3.659,5.352c2.603,5.207,1.736,11.281-1.736,16.488l-6.942,10.414 c-2.603,3.471-1.736,8.678,0.868,11.281l5.207,5.207c-18.143,5.292-36.946,8.606-56.407,9.372V261.075h229.738 c-0.849,18.698-4.13,37.751-9.318,55.539L474.553,311.407z M16.533,261.075H120.61c0.979,36.755,8.165,72.532,20.938,106.053 c-24.531,8.94-48.114,20.926-70.382,35.772C38.707,364.24,18.501,314.969,16.533,261.075z M75.536,96.838 c21.737,14.014,44.816,25.261,68.857,33.614c-14.554,35.58-22.735,73.863-23.784,113.267H16.533 C18.588,187.445,40.528,136.213,75.536,96.838z M488.9,243.719H380.712c-1.05-39.422-9.237-77.722-23.803-113.315 c24.251-8.476,47.437-19.918,69.097-34.208C462,135.716,485.176,187.252,488.9,243.719z M241.983,130.768 c-25.011-0.715-49.802-4.512-73.769-11.277c17.593-36.24,42.485-68.979,73.769-96.238V130.768z M241.983,148.134v95.585H137.969 c1.051-37.668,8.938-74.171,22.967-108.024C187.111,143.224,214.285,147.409,241.983,148.134z M259.339,148.134 c27.726-0.726,54.919-4.92,81.037-12.463c14.035,33.86,21.925,70.371,22.977,108.048H259.339V148.134z M259.339,130.768V23.253 c31.283,27.258,56.176,59.998,73.769,96.238C309.141,126.255,284.35,130.053,259.339,130.768z M349.778,114.263 c-16.566-34.867-39.444-66.762-67.86-94.087c50.551,6.75,96.087,29.622,131.537,63.211 C393.438,96.234,372.043,106.562,349.778,114.263z M151.544,114.263c-22.13-7.654-43.402-17.902-63.314-30.641 c35.052-33.744,80.568-56.684,131.173-63.445C190.987,47.501,168.109,79.396,151.544,114.263z M137.969,261.075h104.014v86.911 c-28.701,0.777-56.87,5.397-84.019,13.663C145.793,329.914,138.943,295.995,137.969,261.075z M241.983,365.344V481.54 c-33.508-29.197-59.683-64.683-77.41-104.022C189.571,370.15,215.524,366.076,241.983,365.344z M82.872,415.837 c20.584-13.747,42.426-24.74,65.177-32.919c16.78,37.841,40.882,72.397,71.354,101.698 C166.177,477.504,118.583,452.491,82.872,415.837z M492.776,406.864l-6.075,0.868c-11.281,1.736-21.695,8.678-26.034,19.959 c-4.339,10.414-3.471,23.431,3.471,32.976l4.339,4.339l-6.942,6.942l-1.736-0.868c-10.414-7.81-22.563-8.678-33.844-4.339 c-11.281,5.207-19.092,14.753-20.827,26.902v1.736h-9.546l-1.736-6.075c-1.736-11.281-9.546-20.827-20.827-25.166 c-9.786-3.764-20.223-2.95-29.05,1.862c-1.402,0.71-2.733,1.522-3.926,2.477l-4.339,3.471l-6.942-6.942l2.603-4.339 c6.942-9.546,7.81-21.695,3.471-32.976c-4.339-10.414-13.885-18.224-26.034-19.959l-6.075-0.868v-9.546l6.075-1.736 c11.281-1.736,20.827-9.546,25.166-20.827c4.339-11.281,2.603-23.431-4.339-32.976l-3.471-4.339l6.942-6.942l7.81,5.207 c9.546,6.942,21.695,7.81,32.108,3.471c11.281-4.339,18.224-13.885,20.827-25.166l1.736-9.546h9.546l0.868,6.942 c1.736,11.281,8.678,21.695,19.959,26.034c10.414,4.339,23.431,3.471,32.976-3.471l4.339-3.471l6.942,7.81l-3.471,4.339l0,0 c-1.614,2.018-2.84,4.231-3.791,6.625c-3.604,8.213-3.935,17.544-0.548,26.352c4.339,10.414,13.885,18.224,25.166,20.827 l5.207,0.868V406.864z"/> <path d="M398.186,356.532c-24.298,0-43.39,19.091-43.39,43.39c0,24.298,19.091,43.39,43.39,43.39 c24.298,0,43.39-19.092,43.39-43.39C441.576,375.624,422.485,356.532,398.186,356.532z M398.186,425.956 c-14.753,0-26.034-11.281-26.034-26.034c0-14.753,11.281-26.034,26.034-26.034c14.753,0,26.034,11.281,26.034,26.034 C424.22,414.675,412.939,425.956,398.186,425.956z"/> </g> </g> </g> </g>
</svg>